<?xml version="1.0" encoding="UTF-8"?><svg id="Calque_2" xmlns="http://www.w3.org/2000/svg" viewBox="0 0 401.4895 99.2929"><g id="Components"><g id="_63378b55-1f70-4439-814a-44bbb4309802_16"><polygon points="19.3266 2.1233 12.0368 2.1233 10.4267 9.8961 17.6307 9.8961 19.3266 2.1233" style="fill:#fbfbfb;"/><polygon points="9.5788 14.2892 0 59.1434 7.0352 59.1434 16.614 14.2892 9.5788 14.2892" style="fill:#fbfbfb;"/><path d="M42.9762.0124h-16.275l-12.6304,59.131h21.3613c15.2583,0,26.7018-9.1238,30.5155-27.2001.679-3.0421.9323-5.9128.9323-8.6172C66.8799,8.9674,58.0645.0124,42.9762.0124ZM58.489,31.099c-3.137,14.6144-11.7824,21.9629-22.8869,21.9629h-12.7158L32.8896,6.1786h9.0698c11.1891,0,17.462,6.2507,17.462,17.232,0,2.2821-.339,4.8996-.9324,7.6884Z" style="fill:#fbfbfb;"/><path d="M90.1023,13.2759c-10.9345,0-19.92,8.1083-22.8026,21.8785-.5077,2.533-.7622,4.8974-.7622,7.0949,0,10.9813,6.4418,17.9076,17.0373,17.9076,9.4099,0,17.0386-5.9974,21.1067-17.2319h-6.8651c-3.1371,7.6858-8.0532,11.7411-13.8171,11.7411-6.6119,0-10.5112-4.4774-10.5112-12.4168,0-1.5198.0845-3.1264.4234-4.8996h32.2968c.5079-2.4487.8467-4.8996.8467-7.3483,0-10.0526-6.6118-16.7254-16.9529-16.7254ZM100.2745,32.2811h-25.1762c2.8826-8.7861,8.3921-13.5145,14.5805-13.5145,6.3573,0,10.6801,4.3062,10.6801,11.0658,0,.76,0,1.6043-.0844,2.4487Z" style="fill:#fbfbfb;"/><path d="M146.5526,14.2892l-2.1192,9.9681c-1.8646-6.844-6.8663-10.8126-14.156-10.8126-10.0866,0-18.8176,7.855-21.6157,21.7941-.5077,2.5331-.7622,4.8972-.7622,7.1793,0,10.7282,6.0184,17.5699,15.6817,17.5699,5.7639,0,11.1045-2.871,15.0038-8.0238l-1.5257,7.1792h7.0352l9.5788-44.8543h-7.1208ZM141.5521,37.6873c-2.2047,10.897-8.3076,16.8099-15.5973,16.8099-6.6963,0-10.8501-4.4776-10.8501-12.6702,0-1.7753.1689-3.8019.5934-5.9127,2.2035-10.9815,8.2219-16.8099,15.5116-16.8099,6.8663,0,10.9357,4.6439,10.9357,12.7546,0,1.7732-.17,3.7176-.5933,5.8284Z" style="fill:#fbfbfb;"/><polygon points="151.1326 59.1434 158.2534 59.1434 170.8836 .0124 163.7628 .0124 151.1326 59.1434" style="fill:#fbfbfb;"/><path d="M225.3868,28.8893c5.425-2.6175,8.3076-7.2639,8.3076-12.9234C233.6944,6.251,226.4035.0003,213.52.0003h-31.7879v59.1312h32.6347c13.0548,0,20.5989-6.504,20.5989-16.4721,0-6.5884-3.3903-11.4036-9.5788-13.7702ZM197.4137,11.3195h14.0715c4.1539,0,6.8663,2.1977,6.8663,6.335,0,4.1397-2.7125,6.2507-6.8663,6.2507h-14.0715v-12.5857ZM212.1631,47.9814h-14.7494v-13.2637h14.7494c4.4927,0,7.2896,2.3666,7.2896,6.6754,0,4.3928-2.7969,6.5883-7.2896,6.5883Z" style="fill:#fbfbfb;"/><path d="M271.1571,18.839c-3.3916-4.8996-8.3921-7.5195-14.495-7.5195-12.3758,0-20.5144,9.546-20.5144,24.4138,0,15.1188,8.0531,24.4115,20.5144,24.4115,6.1029,0,11.1034-2.6175,14.495-7.5172v6.504h15.0883V12.3327h-15.0883v6.5063ZM261.0694,49.9234c-6.1873,0-10.0022-4.6465-10.0022-14.2746,0-9.4615,3.8149-14.1079,10.0022-14.1079,6.2729,0,10.1722,4.6463,10.1722,14.1923s-3.8993,14.1902-10.1722,14.1902Z" style="fill:#fbfbfb;"/><path d="M333.7087,45.1159c0-10.3037-9.9912-12.8497-18.5654-14.6991-6.5328-1.3688-12.2009-2.3777-12.2009-5.9082,0-2.1132,2.2095-3.8905,6.7009-3.8905,5.1636,0,8.6463,2.1132,9.9191,7.2531h.1202l13.1134-1.3929c-2.3296-9.7032-10.8558-15.3232-23.417-15.3232-12.8012,0-20.775,6.1724-20.775,14.7708,0,10.1353,10.0152,12.5129,18.5654,14.2904,6.5328,1.345,12.2249,2.4498,12.2249,6.3404,0,2.4498-2.3057,4.2989-7.6376,4.2989-5.1636,0-8.8143-2.7857-9.8231-8.2856l-13.4737,1.417c2.2815,10.9036,11.288,16.3318,23.561,16.3318,13.4738,0,21.6877-6.6765,21.6877-15.2028Z" style="fill:#fbfbfb;"/><rect x="335.7415" y="12.3327" width="15.0884" height="46.7988" style="fill:#fbfbfb;"/><rect x="335.7415" width="15.0884" height="9.0397" style="fill:#fbfbfb;"/><path d="M401.4847,36.5626l-14.0773,1.4796c-.0849,7.3153-3.2527,11.214-8.396,11.7546-5.9016.6203-10.1712-3.5182-11.1864-13.1773-.989-9.4097,2.3093-14.5133,8.2108-15.1335,5.0571-.5316,8.7833,2.4752,10.502,9.0891l14.0773-1.4796c-2.801-12.8724-12.7685-19.2984-25.7493-17.9342-14.5858,1.533-23.4955,11.6436-21.8708,27.1017,1.6247,15.4582,12.3577,23.5019,27.0274,21.96,13.4031-1.4086,21.695-10.0935,21.4625-23.6604Z" style="fill:#fbfbfb;"/><path d="M307.9915,85.0215c-.4822-.3566-1.049-.6096-1.6845-.7778.2432-.1133.5186-.1926.7383-.3307.9881-.6217,1.7338-1.4239,2.2388-2.4083.5032-.9845.7548-2.0729.7548-3.2616,0-1.3473-.1951-2.5104-.5852-3.4876-.392-.979-.9626-1.7903-1.7119-2.4375-.7493-.6472-1.6536-1.123-2.7146-1.4275-1.0611-.3045-2.268-.4558-3.6189-.4558h-8.6325v28.8582h9.1284c1.8177,0,3.3655-.3245,4.6453-.9717,1.278-.6472,2.2643-1.5916,2.9535-2.8331.6891-1.2434,1.0337-2.7821,1.0337-4.618,0-1.1759-.206-2.2825-.6162-3.3217-.412-1.0355-1.0538-1.8778-1.9289-2.5268ZM301.4082,74.4966c.8751,0,1.5898.1367,2.1476.4066.5561.2716.9699.7074,1.2434,1.309.2716.6016.4066,1.3765.4066,2.3281,0,.8587-.1495,1.5934-.4467,2.2005-.299.6071-.7329,1.0702-1.3035,1.3874-.5706.3172-1.2525.4758-2.0474.4758h-3.7994v-8.1074h3.7994ZM305.286,93.1581c-.2789.6545-.6964,1.1668-1.2525,1.5369-.5579.3701-1.2671.5542-2.1294.5542h-4.2953v-8.9588h4.4739c.8751,0,1.5788.186,2.1094.5561.5305.3701.9152.8988,1.154,1.5843.2388.6873.3573,1.4931.3573,2.4193,0,.8842-.1386,1.6536-.4175,2.3081Z" style="fill:#fbfbfb;"/><path d="M343.6773,70.4347h-3.1631l-8.8639,27.8386-5.0309-11.317c.6931-.35,1.3386-.7479,1.8786-1.2511.8022-.7457,1.4184-1.6682,1.8505-2.7639.4303-1.0975.6454-2.3664.6454-3.8067,0-1.9015-.3464-3.4967-1.0428-4.7857-.6964-1.2889-1.7046-2.2625-3.0246-2.9243-1.3181-.66-2.9407-.99-4.8623-.99h-8.7309v28.8582h4.8331v-11.0791h3.9417l4.709,11.0791h9.5604l1.8785-6.6799h8.8281l1.8839,6.6799h5.0719l-9.2286-28.8582h-1.134ZM318.1663,74.4966h3.8978c.9808,0,1.7739.1987,2.3774.5962.6035.3956,1.0428.9608,1.3218,1.6937.2789.7329.4175,1.6025.4175,2.6071,0,.9116-.155,1.7265-.4667,2.4466-.3118.722-.7785,1.2889-1.402,1.7046-.6235.4175-1.4056.6253-2.3482.6253h-3.7976v-9.6735ZM339.3932,88.5693l3.2706-11.6301,3.2799,11.6301h-6.5505Z" style="fill:#fbfbfb;"/><polygon points="370.3021 90.5529 359.9979 70.4347 355.3051 70.4347 355.3051 99.2929 359.9778 99.2929 359.9778 79.3133 370.2219 99.2929 374.9566 99.2929 374.9566 70.4347 370.3021 70.4347 370.3021 90.5529" style="fill:#fbfbfb;"/><path d="M393.5943,73.5559c-.9608-1.0246-2.1148-1.7994-3.4603-2.3281-1.3473-.5287-2.8477-.7931-4.5049-.7931h-7.2797v28.8582h7.0992c1.7247,0,3.2689-.2644,4.6344-.7931s2.5341-1.3054,3.5022-2.3281c.9663-1.0246,1.7064-2.2862,2.2169-3.7866.5105-1.4986.7657-3.2269.7657-5.1831v-4.6581c0-1.9544-.2552-3.6864-.7657-5.1923-.5105-1.5059-1.247-2.7711-2.2078-3.7957ZM391.7949,87.202c0,1.8377-.206,3.3509-.618,4.5396-.4102,1.1887-1.0793,2.0711-2.0073,2.6453-.9298.5761-2.1695.8623-3.721.8623h-2.2661v-20.7526h2.4466c1.1139,0,2.0583.1531,2.8331.4558.7766.3045,1.4093.773,1.8997,1.4074.4904.6344.8514,1.4603,1.0848,2.4776.2315,1.0191.3482,2.2406.3482,3.6681v4.6964Z" style="fill:#fbfbfb;"/></g></g></svg>